<?xml version="1.0" encoding="UTF-8"?>
<svg xmlns="http://www.w3.org/2000/svg" xmlns:xlink="http://www.w3.org/1999/xlink" width="20px" height="18px" viewBox="0 0 20 18" version="1.1">
<g id="surface1">
<path style=" stroke:none;fill-rule:nonzero;fill:rgb(6.666667%,52.156866%,99.607843%);fill-opacity:1;" d="M 4.523438 1.496094 C 6.742188 3.191406 9.125 6.628906 10 8.472656 C 10.875 6.628906 13.257812 3.191406 15.476562 1.496094 C 17.074219 0.273438 19.667969 -0.675781 19.667969 2.335938 C 19.667969 2.9375 19.328125 7.390625 19.128906 8.113281 C 18.441406 10.625 15.925781 11.265625 13.6875 10.878906 C 17.597656 11.558594 18.59375 13.804688 16.445312 16.046875 C 12.363281 20.3125 10.582031 14.980469 10.125 13.613281 C 10.039062 13.359375 10 13.242188 10 13.34375 C 10 13.242188 9.960938 13.359375 9.875 13.613281 C 9.417969 14.980469 7.636719 20.3125 3.554688 16.046875 C 1.40625 13.804688 2.402344 11.558594 6.3125 10.878906 C 4.074219 11.265625 1.558594 10.625 0.871094 8.113281 C 0.671875 7.390625 0.332031 2.9375 0.332031 2.335938 C 0.332031 -0.675781 2.925781 0.273438 4.523438 1.496094 Z M 4.523438 1.496094 "/>
</g>
</svg>
